<svg width="12" height="12" viewBox="0 0 12 12" fill="none" xmlns="http://www.w3.org/2000/svg">
<g clip-path="url(#clip0_5_11)">
<path d="M9.1875 0H2.8125C1.2592 0 0 1.2592 0 2.8125V9.1875C0 10.7408 1.2592 12 2.8125 12H9.1875C10.7408 12 12 10.7408 12 9.1875V2.8125C12 1.2592 10.7408 0 9.1875 0Z" fill="#F1B31C"/>
<path d="M4 5.5V6.5L3.5 7C3.60257 6.9995 3.42747 7.11834 3.5 7H2.5C2.5 7 2.32289 6.9128 2.32258 6.74545V5.5M0 0H12V2.84211H0V0ZM0 9.15789H6H12V12H0V9.15789Z" fill="#D22F27"/>
<path d="M3.16666 5.5H3.83332V6.16667H3.16666V5.5Z" fill="#F1B31C"/>
<path d="M3.16666 6.41669C3.30473 6.41669 3.41666 6.30476 3.41666 6.16669C3.41666 6.02862 3.30473 5.91669 3.16666 5.91669C3.02859 5.91669 2.91666 6.02862 2.91666 6.16669C2.91666 6.30476 3.02859 6.41669 3.16666 6.41669Z" fill="#6A462F"/>
<path d="M4.49999 5.49998V6.99998M1.83332 5.49998V6.99998M2.49999 4.99998C2.70541 4.89119 2.93421 4.83399 3.16666 4.83331C3.39911 4.83399 3.6279 4.89119 3.83332 4.99998M1.66666 6.99998H1.99999M4.33332 6.99998H4.66666M2.49999 5.49998H3.83332V6.66665C3.83306 6.75497 3.79786 6.8396 3.7354 6.90206C3.67295 6.96451 3.58831 6.99972 3.49999 6.99998H2.83332C2.745 6.99972 2.66037 6.96451 2.59791 6.90206C2.53546 6.8396 2.50025 6.75497 2.49999 6.66665V5.49998Z" stroke="#6A462F" stroke-width="0.333333" stroke-linecap="round" stroke-linejoin="round"/>
</g>
<defs>
<clipPath id="clip0_5_11">
<rect width="12" height="12" rx="3" fill="white"/>
</clipPath>
</defs>
</svg>
