<svg width="12" height="12" viewBox="0 0 12 12" fill="none" xmlns="http://www.w3.org/2000/svg">
<g clip-path="url(#clip0_5_11)">
<path d="M9.1875 0H2.8125C1.2592 0 0 1.2592 0 2.8125V9.1875C0 10.7408 1.2592 12 2.8125 12H9.1875C10.7408 12 12 10.7408 12 9.1875V2.8125C12 1.2592 10.7408 0 9.1875 0Z" fill="#1E50A0"/>
<path d="M6.9032 3.74398V4.73681H9.20213L13 1.48136V0H11.2716L6.9032 3.74398Z" fill="white"/>
<path d="M13 0H12.1358L6.9032 4.48513V4.73681H7.68946L13 0.185052V0Z" fill="#D22F27"/>
<path d="M11.2719 12H13V10.5183L9.20236 7.26318H6.9032V8.2557L11.2719 12Z" fill="white"/>
<path d="M13 12V11.2588L8.33826 7.26318H7.25732L12.7837 12H13Z" fill="#D22F27"/>
<path d="M5.09677 8.25602V7.26318H2.79784L-1 10.5186V12H0.728323L5.09677 8.25602Z" fill="white"/>
<path d="M-1 12H-0.135839L5.09677 7.51487V7.26318H4.31052L-1 11.8149V12Z" fill="#D22F27"/>
<path d="M0.728097 0H-1V1.48167L2.79761 4.73681H5.09677V3.74429L0.728097 0Z" fill="white"/>
<path d="M-1 0V0.741153L3.662 4.73681H4.74271L-0.783677 0H-1Z" fill="#D22F27"/>
<path d="M-1 4.42114H13V7.57902H-1V4.42114Z" fill="white"/>
<path d="M4.87091 0H7.12898V11.9999H4.87091V0Z" fill="white"/>
<path d="M-1 5.05267H13V6.9474H-1V5.05267Z" fill="#D22F27"/>
<path d="M5.32254 0H6.67738V11.9999H5.32254V0Z" fill="#D22F27"/>
</g>
<defs>
<clipPath id="clip0_5_11">
<rect width="12" height="12" rx="3" fill="white"/>
</clipPath>
</defs>
</svg>
